<?xml version="1.0" standalone="no"?>
<!DOCTYPE svg PUBLIC "-//W3C//DTD SVG 20010904//EN"
 "http://www.w3.org/TR/2001/REC-SVG-20010904/DTD/svg10.dtd">
<svg version="1.0" xmlns="http://www.w3.org/2000/svg"
 width="35.000000pt" height="60.000000pt"
 preserveAspectRatio="xMidYMid meet" id = "masterscrew1">

<g transform="translate(0.000000,60.000000) scale(0.100000,-0.100000)"
fill="none" stroke="none" stroke-width="10">
<path d="M126 503 c-11 -15 -20 -46 -22 -72 -4 -78 -1 -81 74 -81 61 -1 65 -2 48 -15 -23 -17 -106 -20 -106 -4 0 5 -4 8 -8 5 -5 -3 -7 -60 -6 -128 1 -68 -3 -131 -8 -140 -5 -11 -5 -18 0 -18 6 0 12 9 15 21 5 18 12 20 63 17 76 -4 85 -26 12 -31 -52 -3 -51 -4 9 -4 l63 0 -6 41 c-3 23 -7 52 -9 66 -2 14 0 32 5 40 5 9 5 19 -1 27 -7 8 -7 18 -1 29 6 11 7 27 1 42 -5 14 -5 30 1 41 6 12 5 22 -2 29 -6 6 -7 16 0 27 9 17 6 31 -21 108 -8 23 -15 27 -46 27 -27 -1 -41 -7 -55 -27z m89 -3 c4 -6 -12 -10 -40 -10 -28 0 -44 4 -40 10 3 6 21 10 40 10 19 0 37 -4 40 -10z m15 -35 c0 -12 -13 -15 -55 -15 -42 0 -55 3 -55 15 0 12 13 15 55 15 42 0 55 -3 55 -15z m-4 -40 c17 -13 14 -14 -43 -15 -50 0 -63 3 -63 15 0 20 79 20 106 0z m-18 -31 c42 -12 22 -24 -38 -24 -33 0 -60 4 -60 9 0 18 54 26 98 15z m30 -105 c2 -13 -9 -16 -58 -18 -55 -2 -60 0 -60 19 0 19 5 21 57 18 43 -2 59 -7 61 -19z m-10 -46 c3 -9 -12 -13 -52 -13 -52 0 -74 9 -59 24 12 12 106 2 111 -11z m-19 -29 c17 -4 28 -10 25 -15 -7 -11 -114 -12 -114 -1 0 22 30 28 89 16z m8 -46 c28 -11 27 -12 -25 -21 -36 -7 -56 -7 -64 1 -28 28 34 43 89 20z m13 -53 c0 -12 -13 -15 -55 -15 -42 0 -55 3 -55 15 0 12 13 15 55 15 42 0 55 -3 55 -15z"/>
</g>
</svg>