<?xml version="1.0" standalone="no"?>
<!DOCTYPE svg PUBLIC "-//W3C//DTD SVG 20010904//EN"
 "http://www.w3.org/TR/2001/REC-SVG-20010904/DTD/svg10.dtd">
<svg version="1.0" xmlns="http://www.w3.org/2000/svg"
 width="35.000000pt" height="60.000000pt"
 preserveAspectRatio="xMidYMid meet" id = "masterscrew2">

<g transform="translate(0.000000,60.000000) scale(0.100000,-0.100000)"
fill="#000000" stroke="none" stroke-width="10">
<path d="M96 506 c3 -23 7 -52 9 -66 2 -14 0 -32 -5 -40 -5 -9 -5 -19 1 -27 7
-8 7 -18 1 -29 -6 -11 -7 -27 -1 -42 5 -14 5 -30 -1 -41 -6 -12 -5 -22 2 -29
6 -6 7 -16 0 -27 -9 -17 -6 -31 21 -107 8 -24 15 -28 46 -28 46 1 73 35 77 99
4 78 1 81 -74 81 -61 1 -65 2 -48 15 23 17 106 20 106 4 0 -5 4 -8 8 -5 5 3 7
60 6 128 -1 68 3 131 8 141 5 10 5 17 0 17 -6 0 -12 -9 -15 -21 -5 -18 -12
-20 -63 -17 -76 4 -85 26 -12 31 52 3 51 4 -9 4 l-63 0 6 -41z m134 -21 c0
-12 -13 -15 -55 -15 -42 0 -55 3 -55 15 0 12 13 15 55 15 42 0 55 -3 55 -15z
m-5 -45 c0 -20 -52 -25 -91 -9 l-29 12 30 8 c47 11 90 6 90 -11z m5 -40 c0 -6
-7 -13 -15 -16 -22 -9 -106 6 -100 17 8 12 115 12 115 -1z m0 -45 c0 -15 -102
-13 -108 3 -3 10 9 12 52 10 31 -2 56 -7 56 -13z m0 -45 c0 -19 -5 -21 -57
-18 -43 2 -59 7 -61 19 -2 13 9 16 58 18 55 2 60 0 60 -19z m10 -90 c0 -15
-46 -23 -85 -16 -56 11 -41 26 25 26 33 0 60 -4 60 -10z m-10 -45 c0 -20 -79
-20 -106 0 -17 13 -14 14 44 15 49 0 62 -3 62 -15z m0 -40 c0 -12 -13 -15 -55
-15 -42 0 -55 3 -55 15 0 12 13 15 55 15 42 0 55 -3 55 -15z m-15 -35 c-3 -5
-21 -10 -40 -10 -19 0 -37 5 -40 10 -4 6 12 10 40 10 28 0 44 -4 40 -10z"/>
</g>
</svg>
