<?xml version="1.0" encoding="utf-8"?>
<svg xmlns="http://www.w3.org/2000/svg" version="1.0" width="1280.000000pt" height="1280.000000pt" viewBox="0 0 1280.000000 1280.000000" preserveAspectRatio="xMidYMid meet" id = "sensitivedentin">
<g transform="translate(0 ,30) scale(0.00300000,-0.00300000)">
<path d="M6625 11164 c-57 -21 -109 -76 -154 -163 -22 -42 -126 -265 -232 -496 -106 -231 -221 -483 -256 -560 -36 -77 -86 -187 -113 -245 -84 -183 -163 -356 -315 -685 -81 -176 -169 -367 -195 -425 -71 -157 -250 -546 -505 -1100 -577 -1255 -555 -1202 -540 -1268 3 -16 17 -39 30 -52 l23 -22 760 12 c799 12 799 12 885 -31 48 -25 74 -75 59 -115 -6 -16 -92 -245 -192 -509 -100 -264 -197 -520 -215 -570 -18 -49 -108 -288 -200 -530 -176 -467 -448 -1187 -525 -1395 -26 -69 -109 -289 -184 -490 -230 -609 -288 -772 -288 -816 -1 -42 7 -64 22 -64 9 0 676 888 1919 2555 144 193 283 379 311 415 27 36 145 193 262 350 117 157 525 704 908 1215 943 1260 874 1163 868 1227 l-3 33 -105 6 c-58 4 -474 7 -925 8 -874 1 -1015 5 -1015 28 0 16 4 22 202 323 85 129 202 307 260 395 98 150 239 364 486 740 58 88 175 266 260 395 86 129 192 291 237 360 45 69 171 260 280 425 455 689 580 882 592 915 18 51 16 94 -6 121 l-19 24 -1169 2 c-1014 2 -1173 0 -1208 -13z" fill="grey" stroke="none" stroke-width="200"/>


</g>
</svg>